Coordinates
version=1
nRows=13
nColumns=38
inDegrees=no

Units are S.I. units (second, meters, Newtons, ...)
If the header above contains a line with 'inDegrees', this indicates whether rotational values are in degrees (yes) or radians (no).

endheader
time	pelvis_tilt	pelvis_list	pelvis_rotation	pelvis_tx	pelvis_ty	pelvis_tz	hip_flexion_r	hip_adduction_r	hip_rotation_r	knee_angle_r	ankle_angle_r	subtalar_angle_r	mtp_angle_r	hip_flexion_l	hip_adduction_l	hip_rotation_l	knee_angle_l	ankle_angle_l	subtalar_angle_l	mtp_angle_l	lumbar_extension	lumbar_bending	lumbar_rotation	arm_flex_r	arm_add_r	arm_rot_r	elbow_flex_r	pro_sup_r	wrist_flex_r	wrist_dev_r	arm_flex_l	arm_add_l	arm_rot_l	elbow_flex_l	pro_sup_l	wrist_flex_l	wrist_dev_l
0	-3.1245	1.43348	-1.54368	0.661277	-0.407778	1.05033	-0.106903	-0.0436048	-0.236397	0.414933	-0.130721	0	0	-0.315136	-0.0257938	-0.246728	0	-0.484353	0	0	-0.210692	-0.0200639	0.0853312	-0.12845	-0.323974	-0.0846602	0.985181	1.5708	0	0	0.200594	-0.343873	0.187288	0.629547	1.5708	0	0
0.01	-3.12023	1.44132	-1.54674	0.661471	-0.407531	1.05027	-0.0995192	-0.0431632	-0.232678	0.412456	-0.134679	0	0	-0.307526	-0.0247405	-0.241595	0	-0.486985	0	0	-0.183289	-0.0142026	0.0569628	-0.105752	-0.335978	-0.0537364	1.005	1.5708	0	0	0.189385	-0.359745	0.17638	0.641792	1.5708	0	0
0.02	-3.12009	1.45496	-1.54629	0.661734	-0.406938	1.04983	-0.0847413	-0.0427993	-0.228706	0.413428	-0.135739	0	0	-0.289937	-0.0254299	-0.243047	0	-0.485899	0	0	-0.171108	-0.0160587	0.0713025	-0.122683	-0.341358	-0.0811764	1.06007	1.5708	0	0	0.2035	-0.365385	0.179295	0.675087	1.5708	0	0
0.03	-3.12439	1.46751	-1.54172	0.662025	-0.406384	1.04939	-0.071148	-0.0418659	-0.224295	0.414324	-0.136158	0	0	-0.27158	-0.0271489	-0.24867	0	-0.482155	0	0	-0.157167	-0.0174405	0.0830652	-0.136959	-0.346499	-0.103464	1.11197	1.5708	0	0	0.214713	-0.371678	0.181617	0.709966	1.5708	0	0
0.04	-3.12222	1.47275	-1.54352	0.662355	-0.406193	1.04936	-0.0658456	-0.0414554	-0.221533	0.413702	-0.136833	0	0	-0.265415	-0.026492	-0.247724	0	-0.482241	0	0	-0.136898	-0.012264	0.0666867	-0.123665	-0.357914	-0.085309	1.14376	1.5708	0	0	0.205836	-0.382232	0.164501	0.736509	1.5708	0	0
0.05	-3.11618	1.47856	-1.54923	0.662674	-0.405973	1.04941	-0.0600332	-0.041412	-0.218687	0.412709	-0.138187	0	0	-0.259779	-0.0250213	-0.244585	0	-0.484176	0	0	-0.120362	-0.0105348	0.0580761	-0.114832	-0.367634	-0.0752416	1.17742	1.5708	0	0	0.201523	-0.391244	0.150115	0.769522	1.5708	0	0
0.06	-3.10914	1.48861	-1.55608	0.662903	-0.405405	1.04927	-0.0496129	-0.0416336	-0.215645	0.412492	-0.139603	0	0	-0.249476	-0.023777	-0.242175	0	-0.486722	0	0	-0.124405	-0.0164177	0.097056	-0.153577	-0.367553	-0.136959	1.25087	1.5708	0	0	0.236251	-0.389006	0.173931	0.814347	1.5708	0	0
0.07	-3.10815	1.49187	-1.55551	0.662969	-0.405225	1.04914	-0.0465855	-0.0414355	-0.216408	0.412185	-0.139686	0	0	-0.231424	-0.0310848	-0.267305	0.0146069	-0.476314	0	0	-0.106496	-0.0102238	0.0826636	-0.138475	-0.378235	-0.120961	1.27873	1.5708	0	0	0.229623	-0.398648	0.16373	0.844543	1.5708	0	0
0.08	-3.09922	1.49954	-1.56298	0.663206	-0.404722	1.04895	-0.039203	-0.0414899	-0.215854	0.411334	-0.140185	0	0	-0.224948	-0.0293339	-0.260805	0.00991556	-0.475423	0	0	-0.0969089	-0.0143198	0.0942052	-0.147454	-0.384805	-0.134891	1.32006	1.5708	0	0	0.241881	-0.402012	0.167838	0.886777	1.5708	0	0
0.09	-3.09802	1.50614	-1.56302	0.663406	-0.404306	1.04883	-0.0327991	-0.0409328	-0.214889	0.410536	-0.140899	0	0	-0.220163	-0.0281594	-0.253805	0.0036843	-0.477298	0	0	-0.0884847	-0.0198442	0.108704	-0.157476	-0.390066	-0.151885	1.35899	1.5708	0	0	0.257389	-0.403815	0.176073	0.929015	1.5708	0	0
0.1	-3.09364	1.50782	-1.56665	0.663657	-0.404238	1.04876	-0.0309722	-0.0408241	-0.21426	0.410977	-0.141058	0	0	-0.220171	-0.0272176	-0.249067	0	-0.479807	0	0	-0.0788348	-0.0142735	0.107952	-0.152571	-0.39706	-0.154858	1.39495	1.5708	0	0	0.26413	-0.408307	0.180587	0.958583	1.5708	0	0
0.11	-3.09058	1.51006	-1.56871	0.663852	-0.404133	1.04875	-0.028847	-0.0405783	-0.214058	0.410617	-0.141279	0	0	-0.218215	-0.0268944	-0.246797	0	-0.481341	0	0	-0.071956	-0.0144597	0.115925	-0.153935	-0.404041	-0.163232	1.42897	1.5708	0	0	0.278347	-0.409702	0.190504	0.991591	1.5708	0	0
0.12	-3.08326	1.51213	-1.57506	0.664085	-0.404011	1.04871	-0.0268379	-0.0406005	-0.213886	0.410571	-0.141379	0	0	-0.21629	-0.0264993	-0.244798	0	-0.482607	0	0	-0.0662522	-0.0152369	0.125366	-0.156668	-0.409601	-0.175675	1.46391	1.5708	0	0	0.295052	-0.410063	0.204568	1.02363	1.5708	0	0
